<svg width="131" height="130" viewBox="0 0 131 130" fill="none" xmlns="http://www.w3.org/2000/svg">
<path d="M130.25 65C130.25 100.899 101.149 130 65.25 130C29.3515 130 0.25 100.899 0.25 65C0.25 29.1015 29.3515 0 65.25 0C101.149 0 130.25 29.1015 130.25 65ZM13.25 65C13.25 93.7188 36.5312 117 65.25 117C93.9688 117 117.25 93.7188 117.25 65C117.25 36.2812 93.9688 13 65.25 13C36.5312 13 13.25 36.2812 13.25 65Z" fill="#D9D9D9" fill-opacity="0.2"/>
<path d="M130.25 65C130.25 100.899 101.149 130 65.25 130C29.3515 130 0.25 100.899 0.25 65C0.25 29.1015 29.3515 0 65.25 0C101.149 0 130.25 29.1015 130.25 65ZM13.25 65C13.25 93.7188 36.5312 117 65.25 117C93.9688 117 117.25 93.7188 117.25 65C117.25 36.2812 93.9688 13 65.25 13C36.5312 13 13.25 36.2812 13.25 65Z" fill="url(#paint0_linear_587_793)"/>
<path opacity="0.2" d="M84.0578 55.5961H70.8923V42.4306L84.0578 55.5961Z" fill="black"/>
<path d="M46.4421 77.2252C46.4421 79.8113 48.1301 81.9271 50.2037 81.9271C50.6576 81.9175 51.1048 81.8154 51.518 81.627C51.9311 81.4387 52.3015 81.168 52.6064 80.8316C52.7747 80.6438 52.9791 80.4919 53.2074 80.3847C53.4357 80.2776 53.6832 80.2174 53.9351 80.2078C54.1871 80.1982 54.4385 80.2394 54.6742 80.3289C54.91 80.4184 55.1253 80.5544 55.3074 80.7288C55.4896 80.9032 55.6348 81.1125 55.7344 81.3441C55.834 81.5758 55.8861 81.8251 55.8874 82.0773C55.8887 82.3294 55.8394 82.5793 55.7422 82.812C55.645 83.0447 55.5021 83.2554 55.3218 83.4318C54.6677 84.1371 53.8762 84.7012 52.996 85.0893C52.1159 85.4775 51.1656 85.6814 50.2037 85.6887C46.0542 85.6887 42.6805 81.8919 42.6805 77.2252C42.6805 72.5585 46.0542 68.7616 50.2037 68.7616C51.1656 68.7689 52.1159 68.9729 52.996 69.361C53.8762 69.7492 54.6677 70.3132 55.3218 71.0186C55.5021 71.1949 55.645 71.4057 55.7422 71.6384C55.8394 71.8711 55.8887 72.1209 55.8874 72.3731C55.8861 72.6253 55.834 72.8746 55.7344 73.1062C55.6348 73.3379 55.4896 73.5471 55.3074 73.7215C55.1253 73.8959 54.91 74.0319 54.6742 74.1214C54.4385 74.2109 54.1871 74.2521 53.9351 74.2425C53.6832 74.2329 53.4357 74.1728 53.2074 74.0656C52.9791 73.9585 52.7747 73.8065 52.6064 73.6188C52.3011 73.2828 51.9307 73.0124 51.5176 72.8241C51.1046 72.6357 50.6575 72.5334 50.2037 72.5232C48.1301 72.5232 46.4421 74.6391 46.4421 77.2252ZM65.1559 75.1822C64.2156 74.9095 63.2422 74.6297 62.6992 74.2794C62.4029 74.089 62.41 74.0443 62.4359 73.8327C62.4394 73.6617 62.4839 73.4941 62.5658 73.344C62.6476 73.1938 62.7643 73.0655 62.9061 72.9699C63.9875 72.2364 66.5148 72.5632 67.5681 72.8382C68.0507 72.9651 68.5639 72.8951 68.9949 72.6436C69.4259 72.392 69.7393 71.9796 69.8661 71.497C69.993 71.0144 69.923 70.5012 69.6715 70.0702C69.4199 69.6392 69.0075 69.3258 68.5249 69.1989C68.0265 69.0696 63.5878 67.9717 60.8066 69.8478C60.2177 70.2425 59.7228 70.762 59.3571 71.3694C58.9914 71.9768 58.7639 72.6573 58.6907 73.3625C58.2205 77.0959 61.8975 78.1609 64.098 78.7956C66.9356 79.6161 67.1849 79.9523 67.1026 80.58C67.0297 81.1466 66.8063 81.3653 66.5995 81.504C65.518 82.2234 63.033 81.8707 62.0033 81.5886C61.5252 81.4618 61.0163 81.5284 60.587 81.774C60.1576 82.0197 59.8424 82.4245 59.7094 82.901C59.5765 83.3774 59.6366 83.8871 59.8767 84.3195C60.1168 84.752 60.5177 85.0724 60.9924 85.2115C62.1576 85.517 63.3566 85.6749 64.5612 85.6817C65.9318 85.6817 67.4529 85.4466 68.673 84.6331C69.2753 84.2329 69.7814 83.7043 70.1549 83.0852C70.5285 82.4661 70.7603 81.7719 70.8336 81.0526C71.3625 76.9901 67.4787 75.8545 65.1559 75.1822ZM80.2022 75.1822C79.2619 74.9095 78.2885 74.6297 77.7455 74.2794C77.4516 74.089 77.4563 74.0443 77.4822 73.8327C77.4857 73.6617 77.5302 73.4941 77.6121 73.344C77.6939 73.1938 77.8106 73.0655 77.9524 72.9699C79.0338 72.2364 81.5588 72.5632 82.612 72.8382C83.0946 72.9651 83.6079 72.8951 84.0388 72.6436C84.4698 72.392 84.7832 71.9796 84.9101 71.497C85.037 71.0144 84.967 70.5012 84.7154 70.0702C84.4639 69.6392 84.0515 69.3258 83.5689 69.1989C83.0728 69.0696 78.6318 67.9717 75.8506 69.8478C75.2641 70.2441 74.7717 70.7642 74.4082 71.3715C74.0446 71.9788 73.8187 72.6584 73.7464 73.3625C73.2762 77.0959 76.9555 78.1609 79.1537 78.7956C81.989 79.6161 82.2382 79.9523 82.1583 80.58C82.0854 81.1466 81.862 81.3653 81.6528 81.504C80.5714 82.2234 78.0887 81.8707 77.059 81.5886C76.5776 81.4545 76.0627 81.5172 75.6276 81.7628C75.1924 82.0084 74.8726 82.4167 74.7386 82.8981C74.6045 83.3795 74.6672 83.8943 74.9127 84.3295C75.1583 84.7647 75.5667 85.0845 76.0481 85.2185C77.2141 85.524 78.4138 85.6819 79.6192 85.6887C80.9875 85.6887 82.5109 85.4536 83.7311 84.6402C84.333 84.2399 84.8387 83.7111 85.2119 83.092C85.5851 82.4729 85.8164 81.7788 85.8893 81.0596C86.4088 76.9901 82.525 75.8545 80.1999 75.1822H80.2022ZM44.5613 61.2385V44.3114C44.5613 43.3138 44.9576 42.357 45.6631 41.6516C46.3685 40.9461 47.3253 40.5498 48.3229 40.5498H70.8924C71.1394 40.5496 71.3841 40.5981 71.6124 40.6925C71.8407 40.7869 72.0482 40.9253 72.223 41.1L85.3885 54.2655C85.5631 54.4403 85.7016 54.6477 85.796 54.8761C85.8904 55.1044 85.9388 55.3491 85.9386 55.5961V61.2385C85.9386 61.7373 85.7405 62.2157 85.3878 62.5684C85.0351 62.9211 84.5567 63.1193 84.0579 63.1193C83.559 63.1193 83.0807 62.9211 82.7279 62.5684C82.3752 62.2157 82.1771 61.7373 82.1771 61.2385V57.4769H70.8924C70.3935 57.4769 69.9151 57.2788 69.5624 56.926C69.2097 56.5733 69.0116 56.0949 69.0116 55.5961V44.3114H48.3229V61.2385C48.3229 61.7373 48.1247 62.2157 47.772 62.5684C47.4193 62.9211 46.9409 63.1193 46.4421 63.1193C45.9433 63.1193 45.4649 62.9211 45.1122 62.5684C44.7595 62.2157 44.5613 61.7373 44.5613 61.2385ZM72.7731 53.7153H79.5158L72.7731 46.9704V53.7153Z" fill="black"/>
<path d="M46.4421 77.2252C46.4421 79.2635 47.7351 80.9867 49.2633 80.9867C49.5902 80.9761 49.9115 80.8991 50.2077 80.7604C50.5039 80.6218 50.7689 80.4245 50.9866 80.1804C51.5041 79.6398 52.2152 79.3269 52.9634 79.3106C53.7116 79.2943 54.4356 79.5758 54.9762 80.0934C55.5168 80.6109 55.8296 81.322 55.8459 82.0702C55.8623 82.8184 55.5807 83.5424 55.0632 84.083C54.3209 84.8802 53.4235 85.5172 52.4262 85.9551C51.4288 86.3929 50.3525 86.6223 49.2633 86.6291C44.5966 86.6291 40.7997 82.3973 40.7997 77.2252C40.7997 72.053 44.5966 67.8212 49.2633 67.8212C50.3525 67.8281 51.4288 68.0574 52.4262 68.4953C53.4235 68.9331 54.3209 69.5702 55.0632 70.3673C55.5807 70.9079 55.8623 71.632 55.8459 72.3802C55.8296 73.1284 55.5168 73.8394 54.9762 74.357C54.4356 74.8745 53.7116 75.1561 52.9634 75.1398C52.2152 75.1234 51.5041 74.8106 50.9866 74.27C50.7689 74.0259 50.5039 73.8285 50.2077 73.6899C49.9115 73.5513 49.5902 73.4743 49.2633 73.4636C47.7351 73.4636 46.4421 75.1822 46.4421 77.2252ZM69.3666 75.8828C68.1628 75.0717 66.7052 74.6508 65.4169 74.2794C64.7869 74.1088 64.1662 73.9056 63.5573 73.6705C64.1333 73.3931 65.8401 73.3649 67.3353 73.7481C68.0589 73.9392 68.8288 73.835 69.4756 73.4585C70.1224 73.082 70.5931 72.4639 70.7842 71.7403C70.9753 71.0167 70.8711 70.2469 70.4946 69.6001C70.1181 68.9533 69.5 68.4825 68.7765 68.2914C67.8507 68.063 66.9067 67.9167 65.9553 67.8541C63.6207 67.699 61.7235 68.108 60.2894 69.0696C59.5902 69.539 59.0027 70.1562 58.5684 70.8778C58.1341 71.5993 57.8637 72.4074 57.7762 73.245C57.5176 75.2997 58.3616 77.07 60.153 78.2267C61.2768 78.9531 62.5887 79.3316 63.8558 79.6984C64.5611 79.9076 65.7225 80.2391 66.1786 80.5283C66.1705 80.5861 66.1539 80.6423 66.1292 80.6952C65.8072 81.0596 63.877 81.116 62.276 80.6811C61.9169 80.5735 61.5399 80.5386 61.1672 80.5784C60.7944 80.6182 60.4334 80.7318 60.105 80.9127C59.7767 81.0936 59.4877 81.3381 59.255 81.632C59.0222 81.9258 58.8503 82.2631 58.7494 82.6242C58.6485 82.9852 58.6206 83.3627 58.6672 83.7347C58.7138 84.1066 58.8341 84.4655 59.0211 84.7905C59.208 85.1154 59.4578 85.3998 59.7559 85.6271C60.054 85.8544 60.3944 86.02 60.7572 86.1142C62.0002 86.4487 63.281 86.6217 64.5682 86.6291C66.0869 86.6291 67.7961 86.354 69.2067 85.4183C69.9209 84.9461 70.522 84.3219 70.9671 83.5903C71.4121 82.8588 71.69 82.038 71.781 81.1866C72.0678 78.9955 71.205 77.1147 69.3666 75.8781V75.8828ZM85.3532 75.8828C84.1495 75.0717 82.6919 74.6508 81.4036 74.2794C80.7736 74.1088 80.1529 73.9056 79.544 73.6705C80.12 73.3931 81.8268 73.3649 83.322 73.7481C84.0456 73.9392 84.8155 73.835 85.4623 73.4585C86.1091 73.082 86.5798 72.4639 86.7709 71.7403C86.962 71.0167 86.8578 70.2469 86.4813 69.6001C86.1048 68.9533 85.4867 68.4825 84.7631 68.2914C83.8374 68.063 82.8934 67.9167 81.942 67.8541C79.6074 67.699 77.7102 68.108 76.2761 69.0696C75.5769 69.539 74.9894 70.1562 74.5551 70.8778C74.1208 71.5993 73.8504 72.4074 73.7629 73.245C73.5043 75.2997 74.3483 77.07 76.1397 78.2267C77.2635 78.9531 78.5754 79.3316 79.8425 79.6984C80.5478 79.9076 81.7092 80.2391 82.1653 80.5283C82.1572 80.5861 82.1406 80.6423 82.1159 80.6952C81.7939 81.0596 79.8637 81.116 78.2627 80.6811C77.9036 80.5735 77.5266 80.5386 77.1539 80.5784C76.7811 80.6182 76.42 80.7318 76.0917 80.9127C75.7634 81.0936 75.4744 81.3381 75.2417 81.632C75.0089 81.9258 74.837 82.2631 74.7361 82.6242C74.6352 82.9852 74.6073 83.3627 74.6539 83.7347C74.7005 84.1066 74.8208 84.4655 75.0078 84.7905C75.1947 85.1154 75.4445 85.3998 75.7426 85.6271C76.0407 85.8544 76.3811 86.02 76.7439 86.1142C77.9869 86.4487 79.2677 86.6217 80.5549 86.6291C82.0736 86.6291 83.7828 86.354 85.1934 85.4183C85.9076 84.9461 86.5087 84.3219 86.9537 83.5903C87.3988 82.8588 87.6767 82.038 87.7677 81.1866C88.0545 78.9955 87.1917 77.1147 85.3532 75.8781V75.8828ZM43.6209 60.2981V44.3114C43.6209 43.0644 44.1163 41.8684 44.9981 40.9866C45.8799 40.1048 47.0759 39.6094 48.3229 39.6094H70.8923C71.2629 39.6091 71.6299 39.6819 71.9724 39.8234C72.3149 39.965 72.6261 40.1727 72.8883 40.4346L86.0538 53.6001C86.3157 53.8623 86.5234 54.1735 86.665 54.516C86.8066 54.8585 86.8793 55.2255 86.879 55.5961V60.2981C86.879 61.0463 86.5818 61.7639 86.0527 62.293C85.5237 62.822 84.8061 63.1193 84.0578 63.1193C83.3096 63.1193 82.592 62.822 82.063 62.293C81.5339 61.7639 81.2367 61.0463 81.2367 60.2981V59.3577H69.9519C69.2037 59.3577 68.4861 59.0605 67.9571 58.5314C67.428 58.0023 67.1308 57.2847 67.1308 56.5365V45.2518H49.2633V60.2981C49.2633 61.0463 48.9661 61.7639 48.437 62.293C47.9079 62.822 47.1903 63.1193 46.4421 63.1193C45.6939 63.1193 44.9763 62.822 44.4472 62.293C43.9182 61.7639 43.6209 61.0463 43.6209 60.2981ZM72.7731 53.7153H78.1804L72.7731 48.3081V53.7153Z" fill="#959595"/>
<defs>
<linearGradient id="paint0_linear_587_793" x1="3.65116" y1="12.2641" x2="130.856" y2="21.9712" gradientUnits="userSpaceOnUse">
<stop stop-color="#FD6F00"/>
<stop offset="1" stop-color="#E46400"/>
</linearGradient>
</defs>
</svg>
